name C:\Users\r0593348\3dpredictsim\Results\MidTarsalJoint\Fal_s1_bCst_PF_Natali2010_ls150_MT_k500_d010_MTP_T5_ig21.mot
datacolumns 128
datarows 4
range 1.12513938 1.15889357
endheader
time	pelvis_tilt	pelvis_list	pelvis_rotation	pelvis_tx	pelvis_ty	pelvis_tz	hip_flexion_l	hip_adduction_l	hip_rotation_l	hip_flexion_r	hip_adduction_r	hip_rotation_r	knee_angle_l	knee_angle_r	ankle_angle_l	ankle_angle_r	subtalar_angle_l	subtalar_angle_r	mtj_angle_l	mtj_angle_r	mtp_angle_l	mtp_angle_r	lumbar_extension	lumbar_bending	lumbar_rotation	arm_flex_l	arm_add_l	arm_rot_l	arm_flex_r	arm_add_r	arm_rot_r	elbow_flex_l	elbow_flex_r	pro_sup_l	pro_sup_r	glut_med1_l/activation	glut_med2_l/activation	glut_med3_l/activation	glut_min1_l/activation	glut_min2_l/activation	glut_min3_l/activation	semimem_l/activation	semiten_l/activation	bifemlh_l/activation	bifemsh_l/activation	sar_l/activation	add_long_l/activation	add_brev_l/activation	add_mag1_l/activation	add_mag2_l/activation	add_mag3_l/activation	tfl_l/activation	pect_l/activation	grac_l/activation	glut_max1_l/activation	glut_max2_l/activation	glut_max3_l/activation	iliacus_l/activation	psoas_l/activation	quad_fem_l/activation	gem_l/activation	peri_l/activation	rect_fem_l/activation	vas_med_l/activation	vas_int_l/activation	vas_lat_l/activation	med_gas_l/activation	lat_gas_l/activation	soleus_l/activation	tib_post_l/activation	flex_dig_l/activation	flex_hal_l/activation	tib_ant_l/activation	per_brev_l/activation	per_long_l/activation	per_tert_l/activation	ext_dig_l/activation	ext_hal_l/activation	ercspn_l/activation	intobl_l/activation	extobl_l/activation	glut_med1_r/activation	glut_med2_r/activation	glut_med3_r/activation	glut_min1_r/activation	glut_min2_r/activation	glut_min3_r/activation	semimem_r/activation	semiten_r/activation	bifemlh_r/activation	bifemsh_r/activation	sar_r/activation	add_long_r/activation	add_brev_r/activation	add_mag1_r/activation	add_mag2_r/activation	add_mag3_r/activation	tfl_r/activation	pect_r/activation	grac_r/activation	glut_max1_r/activation	glut_max2_r/activation	glut_max3_r/activation	iliacus_r/activation	psoas_r/activation	quad_fem_r/activation	gem_r/activation	peri_r/activation	rect_fem_r/activation	vas_med_r/activation	vas_int_r/activation	vas_lat_r/activation	med_gas_r/activation	lat_gas_r/activation	soleus_r/activation	tib_post_r/activation	flex_dig_r/activation	flex_hal_r/activation	tib_ant_r/activation	per_brev_r/activation	per_long_r/activation	per_tert_r/activation	ext_dig_r/activation	ext_hal_r/activation	ercspn_r/activation	intobl_r/activation	extobl_r/activation	
          1.12513938	         -2.93017647	         -2.09582260	          5.22217261	          1.40642423	          0.91905675	         -0.00174618	        -17.12443631	         -1.07907880	          6.40804150	         29.41636056	          3.39768087	         -2.39390441	         -7.37512917	        -11.79966632	         -1.17215700	          5.71023226	          8.35646756	         -4.33810754	          3.02592710	         -0.01338257	         15.17479753	         -0.87045374	         -2.02148224	          0.26096627	         -2.00442308	          4.56075606	        -13.45404816	         15.49244604	         -5.23089829	        -13.45198426	          5.52360172	         34.80898402	         17.55507748	         86.51662706	         86.51662706	          0.25762750	          0.09943709	          0.07467499	          0.29201745	          0.19304781	          0.10853584	          0.05000150	          0.05000034	          0.05000019	          0.05937659	          0.10411577	          0.08858624	          0.06079141	          0.05000213	          0.05000409	          0.05000125	          0.30257022	          0.05001713	          0.05000249	          0.05000599	          0.05000468	          0.05000523	          0.40322988	          0.63391906	          0.05000084	          0.05000055	          0.05113594	          0.23482354	          0.05000990	          0.05000718	          0.05000452	          0.28707959	          0.39057618	          0.32138094	          0.28165268	          0.27421476	          0.36123954	          0.05000004	          0.05937180	          0.11970112	          0.05000026	          0.05000007	          0.05000026	          0.05000001	          0.05000052	          0.05075387	          0.05937611	          0.05937615	          0.05000021	          0.05937620	          0.05937618	          0.05937534	          0.11873073	          0.05937637	          0.22289157	          0.05000032	          0.05000018	          0.13108740	          0.28475963	          0.11879948	          0.15574931	          0.10884314	          0.05000013	          0.06044341	          0.10118316	          0.05000074	          0.05651451	          0.15475361	          0.05000051	          0.05000011	          0.20937734	          0.26216957	          0.13240308	          0.05000082	          0.13351300	          0.13177681	          0.11836034	          0.05021954	          0.05033469	          0.05430626	          0.05000002	          0.05000046	          0.05000021	          0.52891196	          0.25607836	          0.16545607	          0.23726794	          0.46392150	          0.22139984	          0.05937613	          0.11427746	          0.10194241	
          1.13639078	         -2.92711822	         -2.18081875	          5.50532057	          1.42337148	          0.91810706	         -0.00155207	        -17.02947619	         -1.37479357	          6.21106490	         28.77962580	          3.73192627	         -2.15989642	         -9.22796531	        -12.01490769	         -1.78014574	          5.06669291	          9.28583355	         -4.71012574	          2.43871309	         -0.01337466	         16.63470071	         -0.86786289	         -1.82146715	          0.46033896	         -2.07066213	          4.28362534	        -13.46038987	         15.82903654	         -6.08956654	        -13.44970710	          5.28220276	         35.96381454	         17.13921916	         86.51662706	         86.51662706	          0.21694530	          0.08373488	          0.06288302	          0.24590482	          0.16256347	          0.09139686	          0.05000243	          0.05000056	          0.05000076	          0.05000051	          0.08767498	          0.18051104	          0.05173078	          0.05937840	          0.05936839	          0.05937624	          0.25479115	          0.09831014	          0.05001009	          0.05000287	          0.05000185	          0.05000230	          0.33955546	          0.58676826	          0.05000083	          0.05937620	          0.05937638	          0.19774263	          0.13057889	          0.14561614	          0.14689894	          0.24174651	          0.32889986	          0.27097596	          0.24381662	          0.23091379	          0.30419676	          0.05000003	          0.05000012	          0.13172119	          0.05000011	          0.05000003	          0.05000016	          0.05693791	          0.06291768	          0.05937559	          0.05000001	          0.05000006	          0.10549055	          0.05000006	          0.05000007	          0.05000009	          0.09998195	          0.05000031	          0.18769455	          0.05000013	          0.05335715	          0.11038768	          0.26194554	          0.31378146	          0.21159211	          0.11895131	          0.05000060	          0.07050143	          0.12202679	          0.05204727	          0.08796625	          0.13031666	          0.05000015	          0.05980054	          0.44421698	          0.22077010	          0.11149520	          0.05938079	          0.14858006	          0.14824135	          0.12883658	          0.05000030	          0.05937756	          0.05000004	          0.05937633	          0.05000549	          0.05937629	          0.47177664	          0.27956665	          0.20304496	          0.19980081	          0.43014812	          0.18643840	          0.05000001	          0.09623178	          0.08584457	
          1.14764217	         -2.92023274	         -2.26934314	          5.75896046	          1.44060520	          0.91721244	         -0.00137328	        -16.86740513	         -1.67027940	          6.00493123	         28.01925476	          3.98367223	         -1.90038027	        -11.18275091	        -12.51099628	         -2.54204218	          4.54675807	         10.17103734	         -5.10094949	          1.75972408	         -0.14752182	         18.08978127	         -0.89545138	         -1.60140950	          0.67128760	         -2.12567032	          3.93461777	        -13.46395227	         16.10085136	         -6.97355735	        -13.45406187	          5.09715920	         37.09199825	         16.77219742	         86.51662706	         86.51662706	          0.32214433	          0.07051224	          0.05295314	          0.31565003	          0.13689298	          0.07696433	          0.05000150	          0.05000023	          0.05000018	          0.05000025	          0.07383048	          0.15200647	          0.05000093	          0.05000219	          0.05000113	          0.05000076	          0.23924199	          0.08278745	          0.05000112	          0.05000382	          0.05000200	          0.05000114	          0.28593603	          0.55688636	          0.05000033	          0.05000100	          0.05000037	          0.16651691	          0.10995926	          0.12262196	          0.12370215	          0.20357203	          0.27696290	          0.22818582	          0.20531532	          0.19445008	          0.25616083	          0.05000002	          0.09589472	          0.15204418	          0.05000014	          0.05000006	          0.05000015	          0.05000082	          0.05298228	          0.05000005	          0.23250533	          0.23441376	          0.30211639	          0.35468712	          0.22407968	          0.21918469	          0.09272209	          0.05578699	          0.15805614	          0.08373090	          0.05000244	          0.09295629	          0.22058149	          0.26423195	          0.17817952	          0.11817187	          0.05000048	          0.05937711	          0.10276175	          0.05000040	          0.11101827	          0.10973841	          0.05812710	          0.05035754	          0.37407020	          0.18590817	          0.21688277	          0.05000393	          0.12511768	          0.12483247	          0.10849190	          0.05000128	          0.05000160	          0.05257720	          0.05000022	          0.05000045	          0.05000072	          0.54934345	          0.32435994	          0.17098249	          0.35351750	          0.50117217	          0.16078819	          0.06086808	          0.11808092	          0.07228876	
          1.15889357	         -2.91180178	         -2.35143280	          5.97827579	          1.45790788	          0.91639542	         -0.00117315	        -16.60170075	         -1.95531697	          5.80678815	         27.20952968	          4.21526387	         -1.63967535	        -13.27886095	        -12.96960012	         -3.47604832	          4.08193422	         11.01624958	         -5.49516177	          1.04939823	         -0.11324417	         19.43942971	         -0.86992643	         -1.38500198	          0.88369892	         -2.17186736	          3.55073297	        -13.47330780	         16.33435438	         -7.83596215	        -13.45954887	          4.96926173	         38.17435696	         16.43264389	         86.51662706	         86.51662706	          0.29589593	          0.05937759	          0.05000012	          0.26580636	          0.11527612	          0.06481085	          0.05000287	          0.05000027	          0.05000023	          0.05000020	          0.06217205	          0.15698361	          0.05659204	          0.05000694	          0.05000610	          0.05000302	          0.20146447	          0.06972019	          0.05000151	          0.05000272	          0.05000171	          0.05000136	          0.24078357	          0.50942547	          0.05000028	          0.05000092	          0.05000021	          0.14022206	          0.13242296	          0.12323430	          0.11808183	          0.17142573	          0.23322737	          0.19215272	          0.17289377	          0.16374435	          0.21571026	          0.05631074	          0.09923369	          0.15326704	          0.05000062	          0.11490708	          0.05000108	          0.07702992	          0.05000001	          0.05000004	          0.32715127	          0.32509448	          0.34950258	          0.29867831	          0.18869680	          0.18584742	          0.08092634	          0.08573032	          0.13309745	          0.07050922	          0.05000076	          0.07827749	          0.18574927	          0.22250705	          0.15054209	          0.15964909	          0.05000031	          0.05000206	          0.08653675	          0.20688299	          0.17522084	          0.15482250	          0.05000008	          0.05000008	          0.31500039	          0.15655127	          0.18263486	          0.05000005	          0.12740915	          0.14824246	          0.10378356	          0.05000002	          0.05000005	          0.05000000	          0.05000001	          0.05000010	          0.05000010	          0.60741382	          0.29518559	          0.16184205	          0.56472449	          0.53880431	          0.27984208	          0.08010946	          0.09943464	          0.06087356	
